<svg xmlns="http://www.w3.org/2000/svg" height="1200" width="1600" version="1.1" xmlns:xlink="http://www.w3.org/1999/xlink" xmlns:svgjs="http://svgjs.com/svgjs"><rect fill="#f3ebe9" width="1600" height="1200"></rect><g><path d="M1240.73 425.89C1276.52 565.29 1155.4 783.8 1014.33 911.89 873.26 1040.92 711.54 1078.59 571.85 965.57 432.84 852.55 315.85 588.83 361.27 430.6 406.69 272.37 614.51 218.69 814.08 222.45 1013.64 226.22 1205.64 286.5 1240.73 425.89Z" fill="#efdcd7" opacity="1" stroke-width="4" stroke="none"></path></g><g><path d="M1013.14 628.28C1012.37 628.28 1011.59 628.28 1010.82 628.19 992.97 626.98 978.84 617.33 960.48 592.42L961.77 583.11 999.01 556.3 1003.4 557.77C1009.01 566.3 1013.4 571.56 1014.27 572.59L1053.14 537.77C1073.4 519.24 1085.89 510.27 1091.15 510.27 1091.75 510.27 1092.27 510.36 1092.79 510.7 1095.89 512.69 1094.25 519.5 1093.82 520.96 1095.2 520.7 1096.58 520.53 1098.05 520.53 1100.98 520.53 1104.86 521.22 1106.67 524.5 1108.65 528.2 1106.75 532.51 1106.32 533.29 1107.1 533.89 1111.23 537.6 1106.49 545.36 1107.01 546.04 1109.77 550.79 1104.43 555.7 1104.77 556.47 1106.15 560.27 1101.58 563.63 1098.65 565.7 1095.29 566.99 1092.62 566.99 1091.07 567.08 1089.51 566.47 1088.48 565.27 1088.22 565.61 1087.62 566.47 1086.84 567.68 1068.65 595.35 1041.07 628.28 1013.14 628.28Z" fill="#c65a42" opacity="1" stroke-width="4" stroke="none"></path><path d="M1094.34 527.77C1090.72 532.17 1086.58 537.51 1090.98 541.91 1084.95 548.8 1090.12 552.25 1090.12 552.25 1090.12 552.25 1085.81 555.7 1089.26 560.87 1087.88 561.73 1087.44 563.54 1088.31 564.92 1088.31 565.01 1088.39 565.01 1088.39 565.09" stroke="#000000" stroke-width="4" stroke-linecap="round" stroke-linejoin="round" opacity="1" fill="none"></path><path d="M959.88 591.56C955.22 585.18 950.39 578.2 945.22 570.78 940.57 564.06 935.74 557.08 930.48 549.75 923.59 540.18 921.52 531.22 924.45 523.03 927.73 513.64 936.95 507.08 944.19 503.21 948.93 500.62 953.93 498.55 959.1 497 964.62 498.12 982.46 525.44 996.68 547.51 998.75 550.7 1000.73 553.8 1002.63 556.56L1003.4 557.77 960.48 592.42 959.88 591.56Z" fill="#3c2c5b" opacity="1" stroke-width="4" stroke="none"></path><path d="M937.98 471.66C944.71 466.75 954.1 463.12 960.48 453.38 963.84 448.21 967.12 443.3 969.87 439.85 976.08 432.18 985.39 427.7 995.3 427.61 999.01 427.61 1002.72 428.3 1006.16 429.6 1020.56 435.2 1027.19 436.58 1032.54 450.63 1035.56 458.56 1035.73 465.19 1033.23 472.26 1031.16 477.78 1028.75 483.04 1025.9 488.21 1026.33 488.9 1029.09 493.12 1028.14 495.71 1027.02 499.07 1020.39 499.67 1019.44 499.76 1013.14 510.36 1006.85 515.79 999.53 517 998.75 517.08 997.97 517.17 997.2 517.17 986.94 517.17 977.55 506.48 976.25 505.02 970.39 512.95 966.94 521.65 963.24 530.87 961.43 535.27 960.31 539.67 957.72 544.41L943.15 556.73 937.98 471.66Z" fill="#c65a42" opacity="1" stroke-width="4" stroke="none"></path><path d="M970.13 494.41L970.31 494.07 970.48 494.41C973.32 500.79 975.39 503.9 976.08 504.76 976.17 504.93 976.17 505.1 976.08 505.27 975.13 506.65 972.03 510.96 969.7 515.96 969.7 515.96 968.41 497.86 970.13 494.41Z" fill="#000000" opacity="0.3" stroke-width="4" stroke="none"></path><path d="M962.63 481.92C948.15 481.92 938.07 471.92 937.98 471.83L937.81 471.66 937.98 471.57C944.62 466.66 951.86 455.63 958.24 445.97 961.6 440.8 964.88 435.89 967.63 432.44 973.84 424.77 983.15 420.29 993.06 420.2 996.77 420.2 1000.47 420.89 1003.92 422.18 1018.32 427.78 1027.11 436.58 1032.45 450.63 1035.38 458.21 1035.81 464.59 1033.57 471.31L1033.49 471.49H1033.14C1032.88 471.49 1025.99 470.37 1020.9 456.92 1017.45 462.95 1013.92 466.06 1010.47 466.06 1004.96 466.06 1001.34 458.56 1000.39 456.32 1000.04 458.73 998.15 467.35 989.96 469.59H989.79L989.7 469.42C989.61 469.24 982.89 454.07 974.1 454.07 972.37 454.07 970.65 454.68 969.27 455.63 959.19 462.35 965.82 481.05 965.91 481.31 965.91 481.31 963.75 481.92 962.63 481.92Z" fill="#000000" opacity="1" stroke-width="4" stroke="none"></path><path d="M857.04 458.56C851.1 451.83 847.05 447.44 844.63 444.77L781.19 448.13C779.04 448.56 775.94 449.33 772.31 450.11 758.61 453.3 737.84 458.13 729.13 458.13 726.63 458.13 725.25 457.69 724.99 456.92 723.53 452.87 727.67 450.28 732.49 447.27 735.08 445.8 737.49 443.99 739.65 442.01 739.99 441.66 740.08 441.32 739.99 441.06 739.39 439.51 732.67 438.56 725.51 437.7 715.6 436.4 703.27 434.77 699.48 430.63 698.19 429.25 697.67 427.87 697.93 426.58 698.36 424.51 700.43 423.13 701.2 422.7 700.51 422.1 698.36 419.85 698.96 417.53 699.74 414.34 703.62 413.48 704.57 413.3 704.31 412.1 704.65 410.89 705.43 409.94 707.67 407.27 713.53 406.67 718.1 406.67 720.25 406.67 722.06 406.75 723.01 406.84 719.22 404.34 717.15 402.18 716.89 400.29 716.72 399.51 716.98 398.74 717.49 398.13 718.1 397.62 718.96 397.44 719.74 397.53 723.01 397.53 729.39 399.17 736.11 400.98 739.04 401.75 742.06 402.53 744.9 403.22 753.27 405.03 761.71 406.06 770.16 406.41 786.62 402.27 818.26 395.38 843.94 395.38 852.91 395.38 860.41 396.24 866.18 397.96 874.89 400.55 886.01 407.27 899.19 418.3L899.54 420.37 861.18 459.25 857.04 458.56Z" fill="#c65a42" opacity="1" stroke-width="4" stroke="none"></path><path d="M853.17 515.62C853.68 515.27 854.2 514.07 854.72 513.72 871.61 502.77 882.9 492.17 884.11 491.05 877.47 482.35 868.68 471.74 857.99 459.59L857.04 458.56 899.19 418.3C922.81 438.04 947.21 466.49 950.65 474.59 957.2 490.19 955.05 502.95 953.24 514.24 952.38 519.32 951.6 524.15 951.6 528.98 951.6 540.79 957.46 544.32 957.55 544.32L957.72 544.41 957.63 544.58C952.29 556.04 946.95 565.18 937.72 572.25 929.88 578.28 919.02 581.82 905.92 585.87L902.9 585.18 853.17 515.62Z" fill="#3c2c5b" opacity="1" stroke-width="4" stroke="none"></path><path d="M942.98 567.59C949.1 561.3 953.67 553.2 957.72 544.41" stroke="#000000" stroke-width="4" stroke-linecap="round" stroke-linejoin="round" opacity="1" fill="none"></path><path d="M703.1 658.96C710.25 646.89 716.72 633.71 723.01 621.12 728.01 611.04 732.75 601.47 736.89 594.4 756.54 560.35 784.21 548.03 813.43 534.93 819.64 532.17 826.1 529.24 832.39 526.22 839.98 522.51 847.13 518.55 854.29 513.98L854.72 513.72 905.92 585.87C900.31 587.59 892.73 589.92 887.21 591.99 909.19 606.64 923.93 618.02 932.55 624.91L933.41 626.03 875.23 681.63H868.6C849.2 674.22 832.57 667.24 812.48 654.82 794.21 678.35 778.95 697.15 762.57 713.09L761.8 713.35 703.19 660.51 703.1 658.96Z" fill="#ffa0dc" opacity="1" stroke-width="4" stroke="none"></path><path d="M812.22 654.74C784.12 638.45 772.92 615.17 772.92 596.21" stroke="#979797" stroke-width="4" stroke-linecap="round" stroke-linejoin="round" opacity="1" fill="none"></path><path d="M887.21 591.99L870.23 580.78" stroke="#979797" stroke-width="4" stroke-linecap="round" stroke-linejoin="round" opacity="1" fill="none"></path><path d="M884.11 491.05L892.73 501.57" stroke="#000000" stroke-width="4" stroke-linecap="round" stroke-linejoin="round" opacity="1" fill="none"></path><path d="M844.63 444.59L851.36 432.44" stroke="#000000" stroke-width="4" stroke-linecap="round" stroke-linejoin="round" opacity="1" fill="none"></path><path d="M701.38 422.61C716.89 422.96 740.16 426.41 740.16 426.41" stroke="#000000" stroke-width="4" stroke-linecap="round" stroke-linejoin="round" opacity="1" fill="none"></path><path d="M704.57 413.3C721.2 413.48 742.75 416.92 742.75 416.92" stroke="#000000" stroke-width="4" stroke-linecap="round" stroke-linejoin="round" opacity="1" fill="none"></path><path d="M723.01 406.84L744.47 409.17" stroke="#000000" stroke-width="4" stroke-linecap="round" stroke-linejoin="round" opacity="1" fill="none"></path><path d="M978.06 474.68L975.48 468.64" stroke="#000000" stroke-width="4" stroke-linecap="round" stroke-linejoin="round" opacity="1" fill="none"></path><path d="M976.25 505.02C973.67 502.43 971.17 496.22 971.17 496.22" stroke="#000000" stroke-width="4" stroke-linecap="round" stroke-linejoin="round" opacity="1" fill="none"></path><path d="M1008.23 491.91C1007.37 494.5 1008.23 497.95 1009.96 498.81" stroke="#000000" stroke-width="4" stroke-linecap="round" stroke-linejoin="round" opacity="1" fill="none"></path><path d="M905.92 585.78L854.55 513.98" stroke="#979797" stroke-width="4" stroke-linecap="round" stroke-linejoin="round" opacity="1" fill="none"></path><path d="M519.5 784.12L519.59 784.03C522.87 780.5 526.23 776.88 529.68 773.43L534.07 773.95 598.29 860.31 598.37 862.81C596.99 867.9 593.89 872.38 589.75 875.66L589.58 875.74 519.5 784.12Z" fill="#000000" opacity="1" stroke-width="4" stroke="none"></path><path d="M802.83 817.82C804.29 813.42 805.76 809.46 807.57 804.98L808.86 804.46 903.25 860.83 903.42 861.17C903.94 869.62 900.83 874.54 900.4 875.4 900.4 875.48 900.31 875.48 900.23 875.48L802.83 817.82Z" fill="#000000" opacity="1" stroke-width="4" stroke="none"></path><path d="M851.36 730.42L851.44 729.81C871.09 705.42 888.33 691.89 890.57 690.16L888.68 689.47C883.08 687.41 877.82 685.42 872.39 683.35L868.51 681.63 932.29 624.91C932.38 624.83 932.47 624.83 932.55 624.91 938.15 629.4 943.67 634.14 948.84 639.22 971.94 662.93 975.13 688.27 958.32 714.38 949.45 728.26 936.26 742.83 923.5 756.96 920.31 760.5 917.73 763.08 914.8 766.45L913.59 767.14 851.36 730.42Z" fill="#c65a42" opacity="1" stroke-width="4" stroke="none"></path><path d="M892.13 507.69C889.63 507.69 887.13 506.83 884.2 505.71 880.49 504.41 875.23 503.38 869.72 503.12 869.72 503.12 879.97 494.93 884.2 490.88L896.52 505.88C895.23 506.57 893.59 507.69 892.13 507.69Z" fill="#000000" opacity="0.3" stroke-width="4" stroke="none"></path><path d="M868.16 579.49C866.78 578.54 866.35 576.73 867.3 575.27 867.82 574.4 868.77 573.89 869.8 573.89L897.3 573.8 905.83 585.87 904.19 586.38C896.44 588.63 887.13 591.99 887.13 591.99L868.16 579.49Z" fill="#979797" opacity="0.3" stroke-width="4" stroke="none"></path><path d="M752.83 705.33L752.92 705.25C753.01 705.08 764.38 690.59 770.16 666.03 772.06 657.75 773.52 649.05 774.81 641.38 777.06 627.93 777.57 618.28 777.83 618.54 787.92 642.93 812.05 654.48 812.31 654.65L812.48 654.74 812.4 654.91C794.04 678.53 778.87 697.15 762.49 713.09L761.71 713.44 752.83 705.33Z" fill="#979797" opacity="0.3" stroke-width="4" stroke="none"></path><path d="M864.89 714.38C864.8 714.38 864.8 714.3 864.89 714.38 879.37 698.61 890.66 690.16 890.75 690.08L890.83 689.99 912.55 686.72C912.55 686.72 919.11 689.82 894.97 707.4 893.94 708.09 892.9 708.7 891.7 709.13 881.35 713.01 866.61 714.21 864.89 714.38Z" fill="#000000" opacity="0.3" stroke-width="4" stroke="none"></path><path d="M807.57 804.98L807.74 804.54C812.14 793.43 817.22 782.82 823 772.31L823.86 771.96 856.44 791.62 862.04 778.77C864.11 774.12 869.46 772.05 874.11 774.03 874.46 774.2 874.8 774.38 875.15 774.55L896.87 786.87 896.69 789.03C895.92 790.15 895.23 791.18 894.63 792.13 885.14 807.48 887.04 820.23 899.28 846 901.61 850.66 903.68 855.14 903.42 861.17L807.57 804.98Z" fill="#61ccff" opacity="1" stroke-width="4" stroke="none"></path><path d="M823 772.31L823.08 772.14C831.27 757.31 840.75 743.17 851.36 729.9L851.44 729.81 914.8 766.45C909.37 772.57 902.13 781.01 897.47 787.91L896.69 789.03 874.71 774.89C870.49 772.39 865.06 773.77 862.65 778 862.48 778.34 862.3 778.6 862.13 778.94L856.36 792.13 823 772.31Z" fill="#929292" opacity="1" stroke-width="4" stroke="none"></path><path d="M596.65 724.21L596.74 721.19C626.99 703.61 652.59 695.94 668.02 691.28 675.52 689.04 680.95 687.41 683.19 685.68 688.88 680.77 695.17 672.41 702.5 660L703.1 658.96 762.49 712.92C762.57 713.01 762.57 713.01 762.49 713.09 747.23 727.83 732.06 739.04 717.24 746.28 703.79 752.91 687.93 760.07 672.5 766.96 662.16 771.62 651.81 776.36 642.25 780.84L639.83 781.27 596.65 724.21Z" fill="#c65a42" opacity="1" stroke-width="4" stroke="none"></path><path d="M602.08 778.6C596.22 770.93 588.29 766.79 580.62 772.65 579.41 773.6 578.98 776.88 578.03 778.08L577.17 778.17 556.14 750.93 556.74 748.95C569.24 738.78 582.69 729.38 596.56 721.28L596.74 721.19 642.25 780.84 642.07 780.93C631.99 785.67 625.27 789.03 619.23 792.3L615.09 793.08 602.08 778.6Z" fill="#929292" opacity="1" stroke-width="4" stroke="none"></path><path d="M529.68 773.43L529.76 773.34C538.29 764.72 547.26 756.62 556.57 749.03L556.74 748.95 577.17 775.67 582.51 768.69C586.13 763.86 593.03 763 597.77 766.62 598.55 767.22 599.23 767.91 599.84 768.69L619.23 792.3 618.11 792.91C613.89 795.24 610.53 797.22 607.77 799.03 595.18 807.48 596.39 821.35 598.2 840.66 598.55 844.97 598.98 849.37 599.23 854.11 599.41 857.12 599.84 859.02 598.37 862.81L529.68 773.43Z" fill="#61ccff" opacity="1" stroke-width="4" stroke="none"></path><path d="M891.01 690.16L912.55 686.72" stroke="#000000" stroke-width="4" stroke-linecap="round" stroke-linejoin="round" opacity="1" fill="none"></path><path d="M1018.14 485.88C1019.33 485.88 1020.3 484.92 1020.3 483.73 1020.3 482.54 1019.33 481.57 1018.14 481.57 1016.95 481.57 1015.99 482.54 1015.99 483.73 1015.99 484.92 1016.95 485.88 1018.14 485.88Z" fill="#000000" opacity="1" stroke-width="4" stroke="none"></path><path d="M889.8 805.41H874.89" stroke="#000000" stroke-width="4" stroke-linecap="round" stroke-linejoin="round" opacity="1" fill="none"></path><path d="M889.8 818.68L877.21 822.04" stroke="#000000" stroke-width="4" stroke-linecap="round" stroke-linejoin="round" opacity="1" fill="none"></path><path d="M856.44 791.87L844.89 826.52" stroke="#000000" stroke-width="4" stroke-linecap="round" stroke-linejoin="round" opacity="1" fill="none"></path><path d="M577.17 775.84L556.65 808.51" stroke="#000000" stroke-width="4" stroke-linecap="round" stroke-linejoin="round" opacity="1" fill="none"></path><path d="M600.44 805.15L587.6 798.77" stroke="#000000" stroke-width="4" stroke-linecap="round" stroke-linejoin="round" opacity="1" fill="none"></path><path d="M596.99 818.68L584.15 817.73" stroke="#000000" stroke-width="4" stroke-linecap="round" stroke-linejoin="round" opacity="1" fill="none"></path><path d="M932.38 624.91L868.51 681.63" stroke="#979797" stroke-width="4" stroke-linecap="round" stroke-linejoin="round" opacity="1" fill="none"></path><path d="M703.1 658.96L762.49 712.83" stroke="#979797" stroke-width="4" stroke-linecap="round" stroke-linejoin="round" opacity="1" fill="none"></path><path d="M870.32 536.91C829.81 553.97 814.29 566.9 817.74 591.04 821.88 620.26 884.71 640.77 900.83 652.93" stroke="#979797" stroke-width="4" stroke-linecap="round" stroke-linejoin="round" opacity="1" fill="none"></path><path d="M1014.27 572.85L1013.58 591.47" stroke="#000000" stroke-width="4" stroke-linecap="round" stroke-linejoin="round" opacity="1" fill="none"></path><path d="M1090.98 541.91C1090.98 541.91 1101.58 540.1 1106.32 533.29" stroke="#000000" stroke-width="4" stroke-linecap="round" stroke-linejoin="round" opacity="1" fill="none"></path><path d="M1090.12 552.25C1095.29 551.39 1101.67 549.67 1106.24 545.36" stroke="#000000" stroke-width="4" stroke-linecap="round" stroke-linejoin="round" opacity="1" fill="none"></path><path d="M1089.26 560.87C1099.6 559.15 1104.17 555.7 1104.17 555.7" stroke="#000000" stroke-width="4" stroke-linecap="round" stroke-linejoin="round" opacity="1" fill="none"></path><path d="M1084.08 535.87C1084.08 535.87 1082.36 547.94 1079.77 553.97" stroke="#000000" stroke-width="4" stroke-linecap="round" stroke-linejoin="round" opacity="1" fill="none"></path></g><g><path d="M1471.23 991.24H871.23V1063.24H1471.23V991.24Z" fill="#ffc930" opacity="1" stroke-width="4" stroke="none"></path></g><g><path d="M543.32 929.01H123.32V1063.01H543.32V929.01Z" fill="#ffc930" opacity="1" stroke-width="4" stroke="none"></path></g><g><path d="M1100 873.01H500V1063.01H1100V873.01Z" fill="#ffc930" opacity="1" stroke-width="4" stroke="none"></path></g><g><path d="M1100.46 1063.65L1100.72 991.17" stroke="#231f20" stroke-width="4" stroke-linecap="round" stroke-linejoin="round" opacity="1" fill="none"></path></g><g><path d="M499.94 1063.53L500.44 929.01" stroke="#231f20" stroke-width="4" stroke-linecap="round" stroke-linejoin="round" opacity="1" fill="none"></path></g></svg>