<svg xmlns="http://www.w3.org/2000/svg" height="1200" width="1600" version="1.1" xmlns:xlink="http://www.w3.org/1999/xlink" xmlns:svgjs="http://svgjs.com/svgjs"><rect fill="#f3ebe9" width="1600" height="1200"></rect><g><path d="M920.21 320.48C960.8 367.93 987.16 429.88 975.57 484.45 963.97 538.75 914.41 585.67 855.62 614.14 796.84 642.88 729.09 653.16 680.85 628.11 632.87 602.81 604.67 541.65 590.43 477.86 576.2 414.06 575.67 347.37 607.83 301.76 640.25 256.16 705.37 231.91 765.21 235.86 825.04 240.08 879.61 273.03 920.21 320.48Z" fill="#ffffff" opacity="1" stroke-width="4" stroke="none"></path></g><g><path d="M410.23 892.02L427.73 853.31 439.4 893.05 487.23 872.57 458.73 914.81 494.76 938.69 447.79 942.16 453.8 987.55 421.23 955.4 390.97 979.16 397.47 942.03 355.78 938.75 393.22 914.57 372.25 874.88 410.23 892.02Z" stroke="#ffc930" stroke-width="4" stroke-linecap="round" stroke-linejoin="round" opacity="1" fill="none"></path></g><g><path d="M1278.86 416.3L1313.97 388.64 1300.75 429.92 1341.63 434.72 1306 455.1 1323.09 489.22 1285.62 471.21 1268.12 513.65 1259.41 469.65 1213.73 477.62 1247.11 449.03 1216.5 428.13 1255.88 426.05 1252.94 383.62 1278.86 416.3Z" stroke="#61ccff" stroke-width="4" stroke-linecap="round" stroke-linejoin="round" opacity="1" fill="none"></path></g><g><path d="M558.12 1001.99C570.69 1001.99 580.87 991.81 580.87 979.24 580.87 966.68 570.69 956.5 558.12 956.5 545.56 956.5 535.38 966.68 535.38 979.24 535.38 991.81 545.56 1001.99 558.12 1001.99Z" stroke="#ffffff" stroke-width="4" stroke-linecap="round" stroke-linejoin="round" opacity="1" fill="none"></path></g><g><path d="M1353.9 681.91L1377.24 687.45 1357.43 700.89 1364.23 723.89 1342.65 713.48 1326.2 730.86 1324.43 706.93 1301.09 701.39 1320.91 687.87 1314.11 664.95 1335.69 675.36 1352.14 657.98 1353.9 681.91Z" fill="#ffc930" opacity="1" stroke-width="4" stroke="none"></path></g><g><path d="M1273.3 630.71C1281.98 630.71 1289.02 623.68 1289.02 615 1289.02 606.32 1281.98 599.29 1273.3 599.29 1264.63 599.29 1257.59 606.32 1257.59 615 1257.59 623.68 1264.63 630.71 1273.3 630.71Z" stroke="#ffffff" stroke-width="4" stroke-linecap="round" stroke-linejoin="round" opacity="1" fill="none"></path></g><g><path d="M410.45 486.41L431.51 481.27 421.09 500.23 436.02 515.94 414.38 516.43 408.28 537.18 397.02 518.66 375.97 523.79 386.35 504.77 371.46 489.12 393.1 488.63 399.19 467.88 410.45 486.41Z" fill="#ffffff" opacity="1" stroke-width="4" stroke="none"></path></g><g><path d="M311.15 471.05C320.26 471.05 327.65 463.66 327.65 454.55 327.65 445.44 320.26 438.05 311.15 438.05 302.03 438.05 294.65 445.44 294.65 454.55 294.65 463.66 302.03 471.05 311.15 471.05Z" stroke="#efdcd7" stroke-width="4" stroke-linecap="round" stroke-linejoin="round" opacity="1" fill="none"></path></g><g><path d="M697.44 169.63C707.94 169.63 716.45 161.13 716.45 150.63 716.45 140.14 707.94 131.63 697.44 131.63 686.95 131.63 678.44 140.14 678.44 150.63 678.44 161.13 686.95 169.63 697.44 169.63Z" stroke="#ffc930" stroke-width="4" stroke-linecap="round" stroke-linejoin="round" opacity="1" fill="none"></path></g><g><path d="M1099.61 228.93L1180.87 294.43" stroke="#61ccff" stroke-width="4" stroke-linecap="round" stroke-linejoin="round" opacity="1" fill="none"></path><path d="M1053.16 286.83L1134.45 351.64" stroke="#61ccff" stroke-width="4" stroke-linecap="round" stroke-linejoin="round" opacity="1" fill="none"></path><path d="M1066.35 249.67L1167.66 330.81" stroke="#61ccff" stroke-width="4" stroke-linecap="round" stroke-linejoin="round" opacity="1" fill="none"></path><path d="M1140.86 188.88L1210.83 245.03" stroke="#61ccff" stroke-width="4" stroke-linecap="round" stroke-linejoin="round" opacity="1" fill="none"></path><path d="M1024.22 334.21L1094.18 390.36" stroke="#61ccff" stroke-width="4" stroke-linecap="round" stroke-linejoin="round" opacity="1" fill="none"></path><path d="M1117 355.14C1152.83 355.14 1181.86 326.1 1181.86 290.28 1181.86 254.47 1152.83 225.43 1117 225.43 1081.18 225.43 1052.15 254.47 1052.15 290.28 1052.15 326.1 1081.18 355.14 1117 355.14Z" stroke="#231f20" stroke-width="4" stroke-linecap="round" stroke-linejoin="round" opacity="1" fill="none"></path><path d="M1248.99 229.4C1226.55 257.33 1163.02 243.61 1157.81 239.44 1152.6 235.27 1125.33 176.19 1147.77 148.17" stroke="#231f20" stroke-width="4" stroke-linecap="round" stroke-linejoin="round" opacity="1" fill="none"></path><path d="M985.3 350.69C1007.74 322.76 1071.14 336.62 1076.21 340.92 1081.38 345.04 1108.95 403.9 1086.51 431.83" stroke="#231f20" stroke-width="4" stroke-linecap="round" stroke-linejoin="round" opacity="1" fill="none"></path></g><g><path d="M821.93 237.88L839.57 198.86 851.33 238.92 899.54 218.28 870.81 260.85 907.13 284.92 859.79 288.41 865.85 334.16 833.02 301.76 802.52 325.71 809.07 288.29 767.06 284.98 804.79 260.6 783.65 220.61 821.93 237.88Z" stroke="#fe4f32" stroke-width="4" stroke-linecap="round" stroke-linejoin="round" opacity="1" fill="none"></path></g><g><path d="M510.09 170.45C465.36 171.57 430.1 208.64 431.11 253.25 431.68 277.59 443.28 300.46 462.55 315.33 475.05 324.91 482.38 339.66 482.49 355.33L486.77 364.34H534.54L541.64 355.33C541.64 339.78 548.85 325.02 561.24 315.56 596.73 288.4 603.6 237.7 576.45 202.1 560.68 181.6 536 169.77 510.09 170.45Z" fill="#ffc930" opacity="1" stroke-width="4" stroke="none"></path><path d="M482.49 355.44V376.06C482.49 392.39 495.67 405.57 512.01 405.57 528.34 405.57 541.52 392.39 541.52 376.06V355.44H482.49Z" fill="#61ccff" opacity="1" stroke-width="4" stroke="none"></path><path d="M482.49 355.33H541.64" stroke="#2a4552" stroke-width="4" stroke-linecap="round" stroke-linejoin="round" opacity="1" fill="none"></path><path d="M482.49 371.66H541.52" stroke="#2a4552" stroke-width="4" stroke-linecap="round" stroke-linejoin="round" opacity="1" fill="none"></path><path d="M502.09 355.33V331.78C502.09 316.01 495.89 300.8 484.74 289.64 476.29 281.19 471.67 269.81 471.67 257.87 471.67 249.42 478.54 242.66 486.88 242.66 495.33 242.66 502.09 249.53 502.09 257.87V266.66C502.09 272.07 506.48 276.46 511.89 276.46 517.3 276.46 521.69 272.07 521.69 266.66V257.87C521.69 249.42 528.57 242.66 536.9 242.66H537.13C545.58 242.66 552.34 249.53 552.34 257.87 552.34 269.81 547.61 281.31 539.16 289.76 528 301.02 521.69 316.12 521.69 332L521.81 355.44" stroke="#000000" stroke-width="4" stroke-linecap="round" stroke-linejoin="round" opacity="1" fill="none"></path></g><g><path d="M685.43 986.65V967.92H820.97V986.65H685.43Z" fill="#fe4f32" opacity="1" stroke-width="4" stroke="none"></path><path d="M685.43 986.65V967.92H706.51L697.61 986.65H685.43Z" fill="#60251b" opacity="0.2" stroke-width="4" stroke="none"></path><path d="M808.79 986.65L799.89 967.92H820.97V986.65H808.79Z" fill="#60251b" opacity="0.2" stroke-width="4" stroke="none"></path><path d="M658.83 1064.86C658.74 1065.23 658.74 1065.7 658.74 1066.08 658.74 1070.1 662.02 1073.38 666.05 1073.38 669.42 1073.38 672.51 1070.95 673.16 1067.67L718.59 858.33H693.49L658.83 1064.86Z" fill="#fe4f32" opacity="1" stroke-width="4" stroke="none"></path><path d="M812.82 858.33H787.72L833.24 1067.67C833.98 1071.04 836.98 1073.38 840.35 1073.38 840.73 1073.38 841.1 1073.38 841.48 1073.29 843.44 1073.01 845.13 1071.98 846.25 1070.38 847.38 1068.79 847.85 1066.83 847.57 1064.95L812.82 858.33Z" fill="#fe4f32" opacity="1" stroke-width="4" stroke="none"></path><path d="M694.89 967.92L690.87 986.65" stroke="#7c2b1e" stroke-width="4" stroke-linecap="round" stroke-linejoin="round" opacity="1" fill="none"></path><path d="M811.32 967.92L815.35 986.65" stroke="#7c2b1e" stroke-width="4" stroke-linecap="round" stroke-linejoin="round" opacity="1" fill="none"></path><path d="M693.58 858.33L686.65 899.35H709.79L718.69 858.33H693.58Z" fill="#60251b" opacity="0.2" stroke-width="4" stroke="none"></path><path d="M812.82 858.33H787.72L796.61 899.35H819.75L812.82 858.33Z" fill="#60251b" opacity="0.2" stroke-width="4" stroke="none"></path><path d="M675.23 872.47H831.27C837.36 872.47 842.23 867.6 842.23 861.51 842.23 855.43 837.36 850.56 831.27 850.56H675.23C669.14 850.56 664.27 855.43 664.27 861.51 664.27 867.6 669.14 872.47 675.23 872.47Z" fill="#fe4f32" opacity="1" stroke-width="4" stroke="none"></path><path d="M691.15 872.47H715.59" stroke="#fe4f32" stroke-width="4" stroke-linecap="round" stroke-linejoin="round" opacity="1" fill="none"></path><path d="M790.81 872.47H815.25" stroke="#fe4f32" stroke-width="4" stroke-linecap="round" stroke-linejoin="round" opacity="1" fill="none"></path></g><g><path d="M771.9 546.75L770.83 527.35C770.83 527.25 770.93 527.25 770.93 527.25 783.45 529.58 795.67 526.28 801.2 517.84 809.64 505.42 802.27 487.76 802.37 472.23 801.88 461.17 801.3 446.03 795.58 437.4 773.65 404.31 703.1 405.28 702.42 456.71 701.94 479.03 709.51 543.65 709.7 547.72 709.7 547.82 709.7 547.82 709.6 547.82L697.09 548.6C696.99 548.6 696.99 548.69 696.99 548.69L708.15 616.52C708.15 616.52 708.15 616.62 708.25 616.62L769.18 631.85C769.28 631.85 769.28 631.85 769.28 631.75L790.24 548.69C790.24 548.6 790.24 548.6 790.14 548.6 784.32 547.72 773.06 546.95 771.9 546.75 771.9 546.85 771.9 546.85 771.9 546.75Z" fill="#faa378" opacity="1" stroke-width="4" stroke="none"></path><path d="M665.36 559.46H665.46V559.37C673.9 552.87 687.68 548.69 696.99 548.6 696.99 548.6 696.99 548.6 697.09 548.6L760.55 620.01C760.55 620.11 760.64 620.01 760.74 620.01L790.34 548.6C790.34 548.6 790.43 548.6 790.43 548.5 829.05 547.82 899.3 612.64 903.67 616.33H903.77C941.61 606.82 993.04 594.1 995.36 593.23 995.65 593.13 1010.11 616.23 1010.11 616.23 1012.83 620.4 1013.9 625.35 1013.22 630.2L1010.4 654.36 1010.11 654.85C1006.91 656.4 932.88 692.69 888.24 683.96 854.57 677.36 818.09 648.35 815.66 646.41 815.56 646.41 815.56 646.41 815.47 646.5L807.12 696.09C807.12 696.09 807.12 696.09 807.12 696.18L823.33 731.31C823.33 731.4 823.33 731.4 823.23 731.4 821.09 731.4 789.75 746.64 760.45 746.54 739.68 746.54 723.87 748.19 705.24 748.19 685.35 748.19 669.72 731.21 668.08 731.21 667.98 731.21 667.98 731.11 667.98 731.11L674.58 718.11C653.23 724.9 626.93 730.14 611.12 722.67 547.66 692.69 636.15 579.06 665.36 559.46ZM667.78 659.21C672.25 659.02 676.42 658.92 680.2 658.73 679.53 654.07 678.85 649.32 678.17 644.46L667.59 659.02C667.69 659.12 667.69 659.21 667.78 659.21Z" fill="#61ccff" opacity="1" stroke-width="4" stroke="none"></path><path d="M770.74 1006.49L768.02 1001.25C768.02 1001.25 768.02 1001.25 768.02 1001.15 769.38 989.9 771.03 978.55 773.06 968.07L777.92 953.71 778.01 953.61 874.17 955.06C874.27 955.06 874.27 955.16 874.27 955.16L872.04 967.97C869.51 976.31 867.77 983.78 867.09 989.61L841.67 1039.68C841.67 1039.68 841.57 1039.77 841.57 1039.68L770.74 1006.49Z" fill="#faa378" opacity="1" stroke-width="4" stroke="none"></path><path d="M945.78 941.87L993.42 932.75C993.52 932.75 993.52 932.75 993.52 932.84 993.81 934.3 997.69 953.12 998.76 955.26 998.66 956.42 993.52 1010.08 993.33 1012.41 993.33 1012.51 993.33 1012.51 993.23 1012.51H923.66L914.63 1008.43C914.63 1008.43 914.63 1008.43 914.54 1008.33 910.56 997.37 906.97 986.11 904.06 975.44L945.78 941.87Z" fill="#faa378" opacity="1" stroke-width="4" stroke="none"></path><path d="M1069.3 1011.24L1001.57 1044.92H1001.48C996.53 1041.71 991.29 1039.29 986.15 1037.25 986.05 1037.25 986.05 1037.15 986.15 1037.06L1017.49 1013.67 1061.05 999.8H1061.15C1064.26 1002.71 1066.78 1006.2 1069.3 1011.05 1069.4 1011.24 1069.4 1011.24 1069.3 1011.24Z" fill="#000000" opacity="1" stroke-width="4" stroke="none"></path><path d="M987.99 1001.83C988.09 1001.83 988.18 1001.74 988.09 1001.64L976.54 985.05C971.2 977.48 974.02 966.9 982.36 962.73L998.57 954.87C998.66 954.87 998.66 954.87 998.66 954.97 1013.12 992.81 1041.65 983.49 1060.96 999.7 1061.05 999.7 1061.05 999.8 1060.96 999.89 1057.56 1001.64 987.8 1036.38 986.05 1037.25 986.05 1037.25 986.05 1037.25 985.95 1037.25 980.42 1035.21 974.99 1033.85 969.65 1032.98L969.26 1034.05 927.15 1037.73H927.05L925.69 1036.47C921.72 1027.16 917.64 1017.55 914.15 1008.14 914.15 1008.14 914.15 1008.04 914.25 1008.04 951.51 991.26 984.69 1000.86 987.99 1001.83Z" fill="#231f20" opacity="1" stroke-width="4" stroke="none"></path><path d="M765.4 1032.2C765.98 1021.63 766.76 1011.05 768.02 1000.77 768.02 1000.67 768.12 1000.67 768.12 1000.67 807.51 1002.42 832.06 1024.83 834.58 1027.16 834.68 1027.26 834.78 1027.16 834.78 1027.06L831.19 1004.94C829.83 996.88 836.04 989.61 844.19 989.61H866.99C867.09 989.61 867.09 989.7 867.09 989.7 862.04 1028.03 887.27 1036.09 899.88 1054.62 901.05 1056.46 902.02 1058.4 902.8 1060.44 902.8 1060.54 902.8 1060.54 902.7 1060.54L860.97 1065.1 814.3 1060.54C814.3 1060.54 814.3 1060.54 814.21 1060.54 810.81 1056.46 807.41 1053.07 803.92 1050.06L803.24 1050.45 767.34 1036.76C767.34 1036.76 767.34 1036.76 767.24 1036.67L765.4 1032.2Z" fill="#231f20" opacity="1" stroke-width="4" stroke="none"></path><path d="M765.4 1032.3C765.4 1032.2 765.5 1032.2 765.5 1032.2 771.71 1033.17 778.4 1034.92 785.29 1038.03 791.4 1040.84 797.71 1044.72 803.82 1049.96V1050.06L800.81 1073.93C800.81 1074.02 800.81 1074.02 800.72 1074.02H764.82C764.72 1074.02 764.72 1074.02 764.72 1073.93 764.43 1060.05 764.62 1045.89 765.4 1032.3Z" fill="#000000" opacity="1" stroke-width="4" stroke="none"></path><path d="M872.04 1022.99L857.19 1029.29" stroke="#000000" stroke-width="4" stroke-linecap="round" stroke-linejoin="round" opacity="1" fill="none"></path><path d="M881.06 1034.24L868.83 1043.46" stroke="#000000" stroke-width="4" stroke-linecap="round" stroke-linejoin="round" opacity="1" fill="none"></path><path d="M1018.07 980.29L1008.17 992.91" stroke="#000000" stroke-width="4" stroke-linecap="round" stroke-linejoin="round" opacity="1" fill="none"></path><path d="M1030.78 987.08L1024.18 1001.25" stroke="#000000" stroke-width="4" stroke-linecap="round" stroke-linejoin="round" opacity="1" fill="none"></path><path d="M904.83 1073.93H824.01 823.91C820.9 1069.08 817.7 1064.71 814.4 1060.83 814.3 1060.73 814.4 1060.63 814.5 1060.63H902.8C902.8 1060.63 902.89 1060.63 902.89 1060.73 904.15 1064.52 904.93 1068.78 904.93 1073.93 904.93 1073.93 904.93 1073.93 904.83 1073.93Z" fill="#000000" opacity="1" stroke-width="4" stroke="none"></path><path d="M975.57 1058.11L944.03 1073.83H943.94C937.44 1061.6 931.23 1048.99 925.99 1036.47V1036.38C930.84 1034.53 939.67 1032.59 947.53 1031.82 954.9 1031.14 961.01 1031.43 969.75 1032.88 969.75 1032.88 969.75 1032.88 969.84 1032.88L975.57 1058.11Z" fill="#000000" opacity="1" stroke-width="4" stroke="none"></path><path d="M823.33 731.5C825.27 731.5 912.79 739.07 946.17 773.13 978.19 803.11 981.59 879.96 993.42 932.65V932.75C992.16 933.33 971.79 942.55 950.92 952.64 928.7 963.41 905.71 974.57 904.06 975.44 888.53 916.93 887.08 887.72 887.17 849.98 887.17 849.88 887.17 849.88 887.08 849.88L778.89 850.27C727.56 850.37 689.23 803.01 700 752.85L704.56 731.5C723.19 731.5 746.19 731.5 766.95 731.5 796.16 731.5 822.06 731.4 823.33 731.5Z" fill="#ffc930" opacity="1" stroke-width="4" stroke="none"></path><path d="M909.59 805.54C935.98 831.15 929.29 882.29 898.04 950.41 898.04 950.5 897.85 950.5 897.85 950.41 894.74 936.82 892.51 924.98 890.96 914.12 904.25 876.08 916.77 834.26 909.59 805.54Z" fill="#000000" opacity="0.15" stroke-width="4" stroke="none"></path><path d="M655.27 770.9C659.25 753.63 664.29 739.85 668.08 731.5 668.08 731.5 668.08 731.4 668.17 731.4 668.17 731.5 668.17 731.5 668.27 731.5 671.47 731.5 723.97 731.5 767.05 731.5 807.41 738.97 874.17 755.57 900.56 787 904.93 792.24 907.94 798.45 909.68 805.54 916.87 834.26 904.35 876.18 891.05 914.02 884.07 933.91 876.89 952.73 872.23 967.97L872.13 968.07H773.35C773.26 968.07 773.26 967.97 773.26 967.97 781.8 923.53 796.06 884.42 813.04 850.75 813.04 850.66 813.04 850.66 812.94 850.66H732.41C670.11 850.56 646.05 811.75 655.27 770.9Z" fill="#ffc930" opacity="1" stroke-width="4" stroke="none"></path><path d="M829.15 820.29L812.94 850.46C812.94 850.46 812.94 850.56 812.85 850.56 810.42 850.56 722.32 850.56 748.51 850.56 783.45 850.56 816.34 816.5 829.15 820.19 829.15 820.19 829.25 820.29 829.15 820.29Z" fill="#000000" opacity="0.15" stroke-width="4" stroke="none"></path><path d="M849.33 754.21C870.39 762.65 889.21 773.42 900.56 787 922.88 813.49 907.45 866.76 890.86 913.92" stroke="#000000" stroke-width="4" stroke-linecap="round" stroke-linejoin="round" opacity="1" fill="none"></path><path d="M871.36 968.07H773.06" stroke="#000000" stroke-width="4" stroke-linecap="round" stroke-linejoin="round" opacity="1" fill="none"></path><path d="M993.42 932.75L904.06 975.44" stroke="#000000" stroke-width="4" stroke-linecap="round" stroke-linejoin="round" opacity="1" fill="none"></path><path d="M674.67 718.31C682.92 715.69 690.49 712.87 696.41 710.45 696.41 710.45 696.51 710.45 696.51 710.35V710.25C696.51 710.25 696.6 710.35 696.6 710.25 704.27 707.24 709.12 705.01 709.51 704.82 709.51 704.82 709.51 704.82 709.6 704.82 714.07 705.69 718.53 706.18 723 706.27L733.47 731.21C733.47 731.31 733.47 731.31 733.38 731.31H668.27C668.17 731.31 668.17 731.21 668.17 731.21 668.66 730.24 671.47 724.71 674.67 718.31Z" fill="#1a1a1a" opacity="0.15" stroke-width="4" stroke="none"></path><path d="M754.14 521.14C761.23 524.92 769.96 527.06 770.83 527.25 770.83 527.25 770.93 527.25 770.93 527.35L771.71 541.13C771.71 541.22 771.61 541.22 771.51 541.22L754.05 521.23C753.95 521.14 754.05 521.04 754.14 521.14Z" fill="#000000" opacity="0.15" stroke-width="4" stroke="none"></path><path d="M819.35 625.54L860.59 674.54C860.68 674.64 860.59 674.74 860.49 674.74 836.33 663.48 815.56 646.7 815.56 646.7L819.15 625.64C819.25 625.45 819.35 625.45 819.35 625.54Z" fill="#1a1a1a" opacity="0.15" stroke-width="4" stroke="none"></path><path d="M760.64 620.3V678.33" stroke="#1a1a1a" stroke-width="4" stroke-linecap="round" stroke-linejoin="round" opacity="1" fill="none"></path><path d="M807.41 695.41H710.87" stroke="#1a1a1a" stroke-width="4" stroke-linecap="round" stroke-linejoin="round" opacity="1" fill="none"></path><path d="M819.25 625.54L815.47 646.7" stroke="#1a1a1a" stroke-width="4" stroke-linecap="round" stroke-linejoin="round" opacity="1" fill="none"></path><path d="M678.26 644.56L688.06 630.98" stroke="#1a1a1a" stroke-width="4" stroke-linecap="round" stroke-linejoin="round" opacity="1" fill="none"></path><path d="M691.75 658.34C691.75 658.34 683.79 658.53 667.69 659.02" stroke="#1a1a1a" stroke-width="4" stroke-linecap="round" stroke-linejoin="round" opacity="1" fill="none"></path><path d="M754.14 521.14C758.02 523.47 766.56 526.86 770.83 527.54" stroke="#000000" stroke-width="4" stroke-linecap="round" stroke-linejoin="round" opacity="1" fill="none"></path><path d="M741.82 496.1L732.99 489.89" stroke="#000000" stroke-width="4" stroke-linecap="round" stroke-linejoin="round" opacity="1" fill="none"></path><path d="M775.68 494.84C777.24 498.24 781.21 500.28 784.9 499.6" stroke="#000000" stroke-width="4" stroke-linecap="round" stroke-linejoin="round" opacity="1" fill="none"></path><path d="M785.87 488.15C788.98 486.79 788.1 484.46 786.94 481.26" stroke="#000000" stroke-width="4" stroke-linecap="round" stroke-linejoin="round" opacity="1" fill="none"></path><path d="M772.97 473.3C770.83 470.49 766.47 473.69 768.6 476.6 770.83 479.41 775.1 476.21 772.97 473.3Z" fill="#000000" opacity="1" stroke-width="4" stroke="none"></path><path d="M794.02 471.65C790.43 471.75 790.43 476.99 794.02 477.08 797.61 476.99 797.61 471.75 794.02 471.65Z" fill="#000000" opacity="1" stroke-width="4" stroke="none"></path><path d="M647.7 563.35C647.6 563.35 647.6 563.35 647.6 563.25 647.5 510.56 691.27 503.67 697.09 472.23 703.01 440.21 706.69 433.91 714.65 426.14 722.8 418.19 733.67 414.69 745.41 414.3 789.95 413.24 806.05 433.91 804.6 463.21 804.6 463.31 804.6 463.31 804.5 463.31 802.17 463.31 753.37 464.37 751.33 464.37 751.33 464.37 751.23 464.37 751.23 464.47L747.64 479.32C747.64 479.41 747.54 479.41 747.54 479.41 745.8 478.44 724.35 466.9 717.76 479.9 708.15 498.82 737.55 513.18 739.01 513.86 739.01 513.86 739.1 513.96 739.01 513.96L733.18 563.54C733.18 563.64 733.18 563.64 733.09 563.64L647.7 563.35Z" fill="#000000" opacity="1" stroke-width="4" stroke="none"></path><path d="M696.41 658.34C696.41 658.24 696.41 658.24 696.41 658.34 691.56 658.44 686.32 658.63 680.3 658.83 679.62 654.17 678.94 649.41 678.26 644.56L688.06 631.07C688.94 629.81 690.88 630.01 691.56 631.46L702.72 658.15C700.68 658.15 698.54 658.15 696.41 658.34 696.41 658.24 696.51 658.24 696.41 658.34Z" fill="#1a1a1a" opacity="0.15" stroke-width="4" stroke="none"></path><path d="M709.51 704.92C709.12 705.11 704.17 707.34 696.6 710.35H696.51V658.34C696.51 658.34 696.51 658.24 696.6 658.24 698.64 658.15 700.78 658.15 702.81 658.15 710.87 658.05 718.82 658.34 726.88 659.12 742.11 659.89 797.13 674.64 799.55 685.22 799.65 690.55 776.56 685.9 773.45 685.31 773.35 685.31 773.26 685.41 773.35 685.51 775.49 687.55 790.92 702.1 792.37 707.15 794.12 712.87 787.13 715.88 786.45 716.17 786.45 716.17 786.45 716.17 786.36 716.27 784.22 725.58 774.13 720.63 773.16 720.15H773.06C766.76 733.15 734.83 707.15 733.77 706.18 733.77 706.18 733.77 706.18 733.67 706.18 730.08 706.56 726.49 706.66 722.9 706.56 718.43 706.27 713.97 705.79 709.51 704.92Z" fill="#faa378" opacity="1" stroke-width="4" stroke="none"></path><path d="M773.26 719.86L749 700.55" stroke="#000000" stroke-width="4" stroke-linecap="round" stroke-linejoin="round" opacity="1" fill="none"></path><path d="M786.75 715.98L761.61 690.85" stroke="#000000" stroke-width="4" stroke-linecap="round" stroke-linejoin="round" opacity="1" fill="none"></path><path d="M776.85 688.81L770.64 682.6" stroke="#000000" stroke-width="4" stroke-linecap="round" stroke-linejoin="round" opacity="1" fill="none"></path><path d="M995.07 593.23C997.3 592.55 1046.01 576.74 1058.24 576.74 1071.15 576.74 1056.11 592.36 1054.46 594.01 1054.36 594.1 1054.46 594.2 1054.55 594.2 1061.15 594.88 1067.85 595.95 1074.25 597.6 1077.26 598.37 1080.27 600.12 1081.82 602.93 1084.15 607.2 1081.92 612.35 1078.42 615.16L1078.33 615.26C1078.33 615.26 1078.33 615.35 1078.42 615.35 1079.88 616.23 1081.14 617.3 1082.21 618.65 1083.66 620.5 1084.34 622.92 1084.05 625.35 1083.95 626.51 1083.57 627.77 1082.98 628.84 1082.6 629.62 1081.43 630.78 1081.63 631.75 1082.01 634.08 1083.08 636.02 1082.6 638.55 1082.21 640.97 1080.85 643.2 1078.91 644.66 1078.33 645.05 1077.45 645.53 1077.36 646.31 1077.26 647.08 1078.13 647.96 1078.33 648.64 1079.1 651.35 1077.84 654.07 1075.9 656.11 1070.85 661.35 1062.8 663.48 1055.72 663.97 1051.93 664.26 1048.83 663.77 1047.57 662.32 1045.34 659.89 1043.59 657.56 1045.04 654.56 1045.04 654.46 1045.04 654.36 1044.95 654.46 1031.75 657.56 1015.16 660.18 1009.63 655.23 1009.63 655.23 1009.63 655.23 1009.63 655.14L995.07 593.52C994.98 593.23 994.98 593.23 995.07 593.23Z" fill="#faa378" opacity="1" stroke-width="4" stroke="none"></path><path d="M1052.13 604.49C1052.13 604.49 1038.64 607.5 1043.3 617.49 1039.9 618.46 1036.12 619.43 1035.63 624.96 1035.15 630.2 1037.96 634.57 1042.81 634.76 1043.01 634.76 1043.01 634.96 1042.91 635.05 1041.07 635.93 1036.99 638.45 1038.93 643.98 1041.45 651.06 1049.99 650.67 1049.99 650.67 1049.8 650.67 1041.16 657.18 1048.44 662.9" stroke="#000000" stroke-width="4" stroke-linecap="round" stroke-linejoin="round" opacity="1" fill="none"></path><path d="M1077.36 646.11C1068.14 648.64 1058.53 650.09 1049.12 650.48" stroke="#000000" stroke-width="4" stroke-linecap="round" stroke-linejoin="round" opacity="1" fill="none"></path><path d="M1081.63 630.98C1068.62 634.08 1054.65 635.34 1041.26 634.57" stroke="#000000" stroke-width="4" stroke-linecap="round" stroke-linejoin="round" opacity="1" fill="none"></path><path d="M1079.88 615.84C1067.65 618.46 1055.14 619.14 1042.72 617.68" stroke="#000000" stroke-width="4" stroke-linecap="round" stroke-linejoin="round" opacity="1" fill="none"></path><path d="M697.28 709.86C697.28 709.86 671.96 720.83 655.46 723.45" stroke="#1a1a1a" stroke-width="4" stroke-linecap="round" stroke-linejoin="round" opacity="1" fill="none"></path></g><g><path d="M522.32 727.57L522.4 645.87C522.4 647.02 576.51 630.34 576.51 630.34V727.57H522.32V727.57Z" fill="#fe4f32" opacity="1" stroke-width="4" stroke="none"></path><path d="M556.11 727.57L556.2 645.87C556.2 647.02 576.52 630.34 576.52 630.34V727.57H556.11V727.57Z" fill="#2b2b2b" opacity="0.2" stroke-width="4" stroke="none"></path><path d="M537.6 656.03C530.25 656.03 524.96 653.55 523.06 649.34 522.56 648.18 522.32 647.02 522.32 645.78 522.32 638.1 530.82 629.01 543.13 623.64 549.17 621 555.61 619.51 561.23 619.51 568.58 619.51 573.87 621.99 575.77 626.2 576.35 627.44 576.59 628.93 576.51 630.25 576.18 637.77 567.59 646.61 555.69 651.81 549.58 654.54 543.22 656.03 537.6 656.03Z" fill="#231f20" opacity="1" stroke-width="4" stroke="none"></path><path d="M549.42 635.29V616.46" stroke="#000000" stroke-width="4" stroke-linecap="round" stroke-linejoin="round" opacity="1" fill="none"></path><path d="M480.77 727.57L480.85 677.84C480.85 677.84 534.88 694.53 534.96 693.37V727.57H480.77V727.57Z" fill="#fe4f32" opacity="1" stroke-width="4" stroke="none"></path><path d="M513.48 727.57L513.57 677.84C513.57 677.84 534.96 694.53 534.96 693.37V727.57H513.48V727.57Z" fill="#2b2b2b" opacity="0.2" stroke-width="4" stroke="none"></path><path d="M519.75 703.53C514.14 703.53 507.69 702.04 501.66 699.4 489.77 694.2 481.17 685.27 480.84 677.76 480.76 676.35 481.01 674.95 481.59 673.71 483.49 669.41 488.77 667.02 496.13 667.02 501.74 667.02 508.19 668.5 514.22 671.15 526.53 676.52 535.12 685.6 535.04 693.29 535.04 694.53 534.79 695.68 534.29 696.84 532.39 701.14 527.11 703.53 519.75 703.53Z" fill="#231f20" opacity="1" stroke-width="4" stroke="none"></path><path d="M534.96 693.78V727.57" stroke="#000000" stroke-width="4" stroke-linecap="round" stroke-linejoin="round" opacity="1" fill="none"></path><path d="M507.86 683.87V664.04" stroke="#000000" stroke-width="4" stroke-linecap="round" stroke-linejoin="round" opacity="1" fill="none"></path></g><g><path d="M930.4 716.86H1011.29L1038.28 631.74C1040.13 625.9 1045.43 621.98 1051.58 621.98H1164.47C1172.15 621.98 1178.46 628.2 1178.46 635.89 1178.46 637.36 1178.23 638.74 1177.77 640.12L1153.55 716.86 1152.7 719.48C1151.09 724.32 1146.63 727.63 1141.47 727.63L938.32 727.71C937.47 727.71 936.63 727.55 935.86 727.32 931.48 725.94 929.02 721.25 930.4 716.86Z" fill="#fe4f32" opacity="1" stroke-width="4" stroke="none"></path><path d="M1096.18 693.57C1096.57 693.57 1096.88 693.41 1097.11 693.18L1097.18 693.1C1103.64 687.64 1124.63 669.5 1121.56 665.34 1121.02 664.65 1120.17 664.27 1119.02 664.27 1113.48 664.27 1102.1 673.11 1101.14 673.6 1100.72 674.26 1094.49 664.27 1088.65 664.27 1087.57 664.27 1086.49 664.65 1085.57 665.34 1080.34 669.5 1090.51 689.54 1095.03 693.1 1095.41 693.41 1095.8 693.57 1096.18 693.57Z" fill="#ffffff" opacity="1" stroke-width="4" stroke="none"></path><path d="M1102.33 663.78C1103.72 663.78 1105.64 660.86 1106.87 657.02 1108.18 652.94 1108.1 649.25 1106.72 648.79 1106.64 648.79 1106.56 648.71 1106.49 648.71 1105.1 648.71 1103.18 651.63 1101.95 655.48 1100.64 659.55 1100.72 663.25 1102.1 663.71 1102.18 663.78 1102.26 663.78 1102.33 663.78Z" fill="#ffffff" opacity="1" stroke-width="4" stroke="none"></path></g><g><path d="M1213.57 753.49H436.32C429.21 753.49 423.35 747.59 423.35 740.19 423.35 732.9 429.1 726.9 436.32 726.9H1213.57C1220.69 726.9 1226.54 732.8 1226.54 740.19 1226.54 747.48 1220.79 753.49 1213.57 753.49Z" fill="#231f20" opacity="1" stroke-width="4" stroke="none"></path></g></svg>